/**
 * 5 semestre - Eng. da Computação - Insper
 * APS 1 - Embarcados - Buzzer
 *
 * Andre Ejzenmesser
 * Manoela Cirne Campos
 *
 */

/************************************************************************/
/* includes                                                             */
/************************************************************************/

#include "asf.h"

/************************************************************************/
/* defines                                                              */
/************************************************************************/

#define BUZZER_PIO          PIOA
#define BUZZER_PIO_ID       10
#define BUZZER_PIO_IDX      4u
#define BUZZER_PIO_IDX_MASK (1u << BUZZER_PIO_IDX)


#define BUT_PIO           PIOA // periferico que controla o LED
#define BUT_PIO_ID        10 // ID do periférico PIOC (controla LED)
#define BUT_PIO_IDX       11u // ID do LED no PIO
#define BUT_PIO_IDX_MASK  (1u << BUT_PIO_IDX) // Mascara para CONTROLARMOS o LED

/************************************************************************/
/* variaveis globais                                                    */
/************************************************************************/

#define NOTE_C4  262   //Defining note frequency
#define NOTE_D4  294
#define NOTE_E4  330
#define NOTE_F4  349
#define NOTE_G4  392
#define NOTE_A4  440
#define NOTE_B4  494
#define NOTE_C5  523
#define NOTE_D5  587
#define NOTE_E5  659
#define NOTE_F5  698
#define NOTE_G5  784
#define NOTE_A5  880
#define NOTE_B5  988

//*****************************************
int notes[] = {       //Note of the song, 0 is a rest/pulse
   NOTE_E4, NOTE_G4, NOTE_A4, NOTE_A4, 0, 
   NOTE_A4, NOTE_B4, NOTE_C5, NOTE_C5, 0, 
   NOTE_C5, NOTE_D5, NOTE_B4, NOTE_B4, 0,
   NOTE_A4, NOTE_G4, NOTE_A4, 0,
   
   NOTE_E4, NOTE_G4, NOTE_A4, NOTE_A4, 0, 
   NOTE_A4, NOTE_B4, NOTE_C5, NOTE_C5, 0, 
   NOTE_C5, NOTE_D5, NOTE_B4, NOTE_B4, 0,
   NOTE_A4, NOTE_G4, NOTE_A4, 0,
   
   NOTE_E4, NOTE_G4, NOTE_A4, NOTE_A4, 0, 
   NOTE_A4, NOTE_C5, NOTE_D5, NOTE_D5, 0, 
   NOTE_D5, NOTE_E5, NOTE_F5, NOTE_F5, 0,
   NOTE_E5, NOTE_D5, NOTE_E5, NOTE_A4, 0,
   
   NOTE_A4, NOTE_B4, NOTE_C5, NOTE_C5, 0, 
   NOTE_D5, NOTE_E5, NOTE_A4, 0, 
   NOTE_A4, NOTE_C5, NOTE_B4, NOTE_B4, 0,
   NOTE_C5, NOTE_A4, NOTE_B4, 0,

   NOTE_A4, NOTE_A4, 
   //Repeat of first part
   NOTE_A4, NOTE_B4, NOTE_C5, NOTE_C5, 0, 
   NOTE_C5, NOTE_D5, NOTE_B4, NOTE_B4, 0,
   NOTE_A4, NOTE_G4, NOTE_A4, 0,

   NOTE_E4, NOTE_G4, NOTE_A4, NOTE_A4, 0, 
   NOTE_A4, NOTE_B4, NOTE_C5, NOTE_C5, 0, 
   NOTE_C5, NOTE_D5, NOTE_B4, NOTE_B4, 0,
   NOTE_A4, NOTE_G4, NOTE_A4, 0,
   
   NOTE_E4, NOTE_G4, NOTE_A4, NOTE_A4, 0, 
   NOTE_A4, NOTE_C5, NOTE_D5, NOTE_D5, 0, 
   NOTE_D5, NOTE_E5, NOTE_F5, NOTE_F5, 0,
   NOTE_E5, NOTE_D5, NOTE_E5, NOTE_A4, 0,
   
   NOTE_A4, NOTE_B4, NOTE_C5, NOTE_C5, 0, 
   NOTE_D5, NOTE_E5, NOTE_A4, 0, 
   NOTE_A4, NOTE_C5, NOTE_B4, NOTE_B4, 0,
   NOTE_C5, NOTE_A4, NOTE_B4, 0,
   //End of Repeat

   NOTE_E5, 0, 0, NOTE_F5, 0, 0,
   NOTE_E5, NOTE_E5, 0, NOTE_G5, 0, NOTE_E5, NOTE_D5, 0, 0,
   NOTE_D5, 0, 0, NOTE_C5, 0, 0,
   NOTE_B4, NOTE_C5, 0, NOTE_B4, 0, NOTE_A4,

   NOTE_E5, 0, 0, NOTE_F5, 0, 0,
   NOTE_E5, NOTE_E5, 0, NOTE_G5, 0, NOTE_E5, NOTE_D5, 0, 0,
   NOTE_D5, 0, 0, NOTE_C5, 0, 0,
   NOTE_B4, NOTE_C5, 0, NOTE_B4, 0, NOTE_A4
};
//*****************************************
int duration[] = {         //duration of each note (in ms) Quarter Note is set to 250 ms
  125, 125, 250, 125, 125, 
  125, 125, 250, 125, 125,
  125, 125, 250, 125, 125,
  125, 125, 375, 125, 
  
  125, 125, 250, 125, 125, 
  125, 125, 250, 125, 125,
  125, 125, 250, 125, 125,
  125, 125, 375, 125, 
  
  125, 125, 250, 125, 125, 
  125, 125, 250, 125, 125,
  125, 125, 250, 125, 125,
  125, 125, 125, 250, 125,

  125, 125, 250, 125, 125, 
  250, 125, 250, 125, 
  125, 125, 250, 125, 125,
  125, 125, 375, 375,

  250, 125,
  //Rpeat of First Part
  125, 125, 250, 125, 125,
  125, 125, 250, 125, 125,
  125, 125, 375, 125, 
  
  125, 125, 250, 125, 125, 
  125, 125, 250, 125, 125,
  125, 125, 250, 125, 125,
  125, 125, 375, 125, 
  
  125, 125, 250, 125, 125, 
  125, 125, 250, 125, 125,
  125, 125, 250, 125, 125,
  125, 125, 125, 250, 125,

  125, 125, 250, 125, 125, 
  250, 125, 250, 125, 
  125, 125, 250, 125, 125,
  125, 125, 375, 375,
  //End of Repeat
  
  250, 125, 375, 250, 125, 375,
  125, 125, 125, 125, 125, 125, 125, 125, 375,
  250, 125, 375, 250, 125, 375,
  125, 125, 125, 125, 125, 500,

  250, 125, 375, 250, 125, 375,
  125, 125, 125, 125, 125, 125, 125, 125, 375,
  250, 125, 375, 250, 125, 375,
  125, 125, 125, 125, 125, 500
};

/************************************************************************/
/* prototypes                                                           */
/************************************************************************/

void init(void);

/************************************************************************/
/* interrupcoes                                                         */
/************************************************************************/

/************************************************************************/
/* funcoes                                                              */
/************************************************************************/

// Função de inicialização do uC
void init(void)
{
	// Initialize the board clock
	sysclk_init();
	
	// Desativa WatchDog Timer
	WDT->WDT_MR = WDT_MR_WDDIS;
	
	// Ativa o PIO na qual o LED foi conectado
	// para que possamos controlar o LED.
	pmc_enable_periph_clk(BUZZER_PIO_ID);
	
	//Inicializa PC8 como saída
	pio_set_output(BUZZER_PIO, BUZZER_PIO_IDX_MASK, 0, 0, 0);
	
	// configura pino ligado ao botão como entrada com um pull-up.
	pio_set_input(BUT_PIO,BUT_PIO_IDX,PIO_DEFAULT);
	
	//Configurando o pull-up
	pio_pull_up(BUT_PIO,BUT_PIO_IDX,1);
}

/************************************************************************/
/* Main                                                                 */
/************************************************************************/

// Funcao principal chamada na inicalizacao do uC.
int main(void)
{
  init();
  
  while (1)
  {
	/*if(!pio_get(PIOA,34, BUT_PIO_IDX_MASK)){
		for (int i=0;i<5;i++){
			delay_ms(600);                   // Delay por software de 200 ms
			pio_set(PIOA, BUZZER_PIO_IDX_MASK);    // Coloca 0 no pino do LED
			delay_ms(600);                   // Delay por software de 200 ms	
			pio_clear(PIOA, BUZZER_PIO_IDX_MASK);      // Coloca 1 no pino LED
		}
	}*/
	double songspeed = 1.5;
	for (int i=0;i<203;i++){       
		pio_set(PIOA, BUZZER_PIO_IDX_MASK);
		delay_ms(notes[i]);
		pio_clear(PIOA, BUZZER_PIO_IDX_MASK);
		delay_ms(duration[i]);
		
	}
	
  }
  return 0;
}
